<svg width="32px" height="32px" viewBox="0 0 128 128" version="1.1" xmlns="http://www.w3.org/2000/svg" xmlns:xlink="http://www.w3.org/1999/xlink">
    <!-- Generator: Sketch 42 (36781) - http://www.bohemiancoding.com/sketch -->
    <title>128</title>
    <desc>Created with Sketch.</desc>
    <defs></defs>
    <g id="Page-1" stroke="none" stroke-width="1" fill="none" fill-rule="evenodd">
        <g id="128" fill-rule="nonzero" fill="#000000">
            <path d="M41.5581751,83.1163502 C20.263083,83.1163502 3,65.8532672 3,44.5581751 C3,23.263083 20.263083,6 41.5581751,6 C62.8532672,6 80.1163502,23.263083 80.1163502,44.5581751 C80.1163502,65.8532672 62.8532672,83.1163502 41.5581751,83.1163502 Z M41.5581751,71.1163502 C56.2258502,71.1163502 68.1163502,59.2258502 68.1163502,44.5581751 C68.1163502,29.8905 56.2258502,18 41.5581751,18 C26.8905,18 15,29.8905 15,44.5581751 C15,59.2258502 26.8905,71.1163502 41.5581751,71.1163502 Z" id="Oval"></path>
            <path d="M106.56723,61.1344609 C96.3128322,61.1344609 88,52.8216286 88,42.5672304 C88,32.3128322 96.3128322,24 106.56723,24 C116.821629,24 125.134461,32.3128322 125.134461,42.5672304 C125.134461,52.8216286 116.821629,61.1344609 106.56723,61.1344609 Z M106.56723,49.1344609 C110.194212,49.1344609 113.134461,46.1942116 113.134461,42.5672304 C113.134461,38.9402492 110.194212,36 106.56723,36 C102.940249,36 100,38.9402492 100,42.5672304 C100,46.1942116 102.940249,49.1344609 106.56723,49.1344609 Z" id="Oval"></path>
            <path d="M92.5672304,119.06723 C77.3793998,119.06723 65.0672304,106.755061 65.0672304,91.5672304 C65.0672304,76.3793998 77.3793998,64.0672304 92.5672304,64.0672304 C107.755061,64.0672304 120.06723,76.3793998 120.06723,91.5672304 C120.06723,106.755061 107.755061,119.06723 92.5672304,119.06723 Z M92.5672304,107.06723 C101.127644,107.06723 108.06723,100.127644 108.06723,91.5672304 C108.06723,83.0068168 101.127644,76.0672304 92.5672304,76.0672304 C84.0068168,76.0672304 77.0672304,83.0068168 77.0672304,91.5672304 C77.0672304,100.127644 84.0068168,107.06723 92.5672304,107.06723 Z" id="Oval"></path>
        </g>
    </g>
</svg>
