<svg width="128px" height="128px" viewBox="0 0 128 128" version="1.1" xmlns="http://www.w3.org/2000/svg" xmlns:xlink="http://www.w3.org/1999/xlink">
    <!-- Generator: Sketch 42 (36781) - http://www.bohemiancoding.com/sketch -->
    <title>speakericon</title>
    <desc>Created with Sketch.</desc>
    <defs></defs>
    <g id="Page-1" stroke="none" stroke-width="1" fill="none" fill-rule="evenodd">
        <g id="speakericon">
            <g id="Speaker-Icon" transform="translate(7.000000, 11.000000)">
                <g id="waves" transform="translate(70.000000, 21.000000)" stroke="#000000" stroke-width="3">
                    <path d="M16.8452106,65.658171 C28.5583249,57.0805714 35.7145605,45.615001 35.7145605,33.0191849 C35.7145605,20.2363293 28.3442163,8.61753539 16.320409,0" id="Oval-2"></path>
                    <path d="M8.52594615,55.7712261 C16.6889802,49.7767518 21.6762615,41.7640128 21.6762615,32.9613991 C21.6762615,24.0280725 16.5397649,15.908253 8.16020448,9.8858695" id="Oval-2"></path>
                    <path d="M0.201531128,45.6988307 C4.6995295,42.3360769 7.44762324,37.8411257 7.44762324,32.9030741 C7.44762324,27.8916958 4.61730882,23.3366751 0,19.9582648" id="Oval-2"></path>
                </g>
                <g id="speaker" fill="#000000">
                    <rect id="Rectangle" x="0" y="33" width="60" height="40"></rect>
                    <polygon id="Rectangle" transform="translate(60.033009, 53.033009) rotate(45.000000) translate(-60.033009, -53.033009) " points="22.5330086 15.5330086 97.5330086 90.5330086 22.5330086 90.5330086"></polygon>
                </g>
            </g>
        </g>
    </g>
</svg>
