<svg width="32px" height="32px" viewBox="0 0 128 128" version="1.1" xmlns="http://www.w3.org/2000/svg" xmlns:xlink="http://www.w3.org/1999/xlink">
    <!-- Generator: Sketch 42 (36781) - http://www.bohemiancoding.com/sketch -->
    <title>speakericon</title>
    <desc>Created with Sketch.</desc>
    <defs></defs>
    <g id="Page-1" stroke="none" stroke-width="1" fill-rule="evenodd">
        <g id="speakericon" fill="#000000">
            <g id="Speaker-Icon" transform="translate(7.000000, 11.000000)">
                <g id="waves" transform="translate(69.000000, 19.000000)" fill-rule="nonzero">
                    <path d="M18.7314485,68.8683704 C31.1496883,59.7744021 38.2145605,47.8018356 38.2145605,35.0191849 C38.2145605,22.0485799 30.9397359,9.915586 18.1942191,0.780797041 L16.4465988,3.21920296 C28.456833,11.8270104 35.2145605,23.0975869 35.2145605,35.0191849 C35.2145605,46.7663402 28.6546773,57.8831214 16.9589728,66.4479717 L18.7314485,68.8683704 Z" id="Oval-2"></path>
                    <path d="M10.413786,58.9802506 C19.1769989,52.5450387 24.1762615,44.0494203 24.1762615,34.9613991 C24.1762615,25.739999 19.028854,17.1312489 10.0356178,10.6678171 L8.2847912,13.1039219 C16.544186,19.0399424 21.1762615,26.7868287 21.1762615,34.9613991 C21.1762615,43.0160866 16.6802404,50.6565094 8.63810633,56.5622015 L10.413786,58.9802506 Z" id="Oval-2"></path>
                    <path d="M2.09969335,48.9002069 C7.08556257,45.1727153 9.94762324,40.2211309 9.94762324,34.9030741 C9.94762324,29.5072825 7.00127619,24.4906562 1.88574648,20.7477058 L0.11425352,23.1688239 C4.50527562,26.3816638 6.94762324,30.5401506 6.94762324,34.9030741 C6.94762324,39.2016588 4.57758885,43.302 0.303368904,46.4974546 L2.09969335,48.9002069 Z" id="Oval-2"></path>
                </g>
                <g id="speaker">
                    <path d="M27.0330086,33 L0,33 L0,73 L26.9669914,73 L60.0330086,106.066017 L60.0330086,7.10542736e-15 L27.0330086,33 Z" id="Combined-Shape"></path>
                </g>
            </g>
        </g>
    </g>
</svg>
